HIERARCHY
ROOT Hips
{
	OFFSET 0.000000 0.000000 0.000000
	CHANNELS 6 Xposition Yposition Zposition Xrotation Yrotation Zrotation
	JOINT Spine
	{
		OFFSET 0.000000 -0.646012 3.217880
		CHANNELS 6 Xposition Yposition Zposition Xrotation Yrotation Zrotation
		JOINT Spine1
		{
			OFFSET 0.000000 0.983772 5.509130
			CHANNELS 6 Xposition Yposition Zposition Xrotation Yrotation Zrotation
			JOINT Spine2
			{
				OFFSET 0.000000 -0.447618 4.176110
				CHANNELS 6 Xposition Yposition Zposition Xrotation Yrotation Zrotation
				JOINT Spine3
				{
					OFFSET 0.000000 -1.485501 4.997561
					CHANNELS 6 Xposition Yposition Zposition Xrotation Yrotation Zrotation
					JOINT Spine4
					{
						OFFSET 0.000000 0.757504 7.397970
						CHANNELS 6 Xposition Yposition Zposition Xrotation Yrotation Zrotation
						JOINT Neck
						{
							OFFSET 0.000000 2.474189 3.531740
							CHANNELS 6 Xposition Yposition Zposition Xrotation Yrotation Zrotation
							JOINT Head
							{
								OFFSET 0.000000 1.269069 4.240059
								CHANNELS 6 Xposition Yposition Zposition Xrotation Yrotation Zrotation
								End Site
								{
									OFFSET 0.000000 0.427940 8.844120
								}
							}
						}
					}
					JOINT LeftShoulder
					{
						OFFSET -2.124950 4.240058 8.991680
						CHANNELS 6 Xposition Yposition Zposition Xrotation Yrotation Zrotation
						JOINT LeftArm
						{
							OFFSET -4.608000 -1.628150 -1.269070
							CHANNELS 6 Xposition Yposition Zposition Xrotation Yrotation Zrotation
							JOINT LeftForeArm
							{
								OFFSET -16.097200 -1.149000 -0.734705
								CHANNELS 6 Xposition Yposition Zposition Xrotation Yrotation Zrotation
								JOINT LeftHand
								{
									OFFSET -13.650402 -0.974348 -0.943317
									CHANNELS 6 Xposition Yposition Zposition Xrotation Yrotation Zrotation
									End Site
									{
										OFFSET -4.981701 -0.355566 -0.344263
									}
								}
							}
						}
					}
					JOINT RightShoulder
					{
						OFFSET 2.124950 4.240058 8.991680
						CHANNELS 6 Xposition Yposition Zposition Xrotation Yrotation Zrotation
						JOINT RightArm
						{
							OFFSET 4.608000 -1.628150 -1.269070
							CHANNELS 6 Xposition Yposition Zposition Xrotation Yrotation Zrotation
							JOINT RightForeArm
							{
								OFFSET 16.097200 -1.149000 -0.734705
								CHANNELS 6 Xposition Yposition Zposition Xrotation Yrotation Zrotation
								JOINT RightHand
								{
									OFFSET 13.650402 -0.974348 -0.943317
									CHANNELS 6 Xposition Yposition Zposition Xrotation Yrotation Zrotation
									End Site
									{
										OFFSET 4.981701 -0.355566 -0.344263
									}
								}
							}
						}
					}
				}
			}
		}
	}
	JOINT LeftUpLeg
	{
		OFFSET -4.313530 0.323005 -1.608940
		CHANNELS 6 Xposition Yposition Zposition Xrotation Yrotation Zrotation
		JOINT LeftLeg
		{
			OFFSET -1.163420 0.356368 -22.796801
			CHANNELS 6 Xposition Yposition Zposition Xrotation Yrotation Zrotation
			JOINT LeftFoot
			{
				OFFSET -1.121280 -1.777507 -20.668699
				CHANNELS 6 Xposition Yposition Zposition Xrotation Yrotation Zrotation
				JOINT LeftToeBase
				{
					OFFSET 0.000000 6.880780 -2.590649
					CHANNELS 6 Xposition Yposition Zposition Xrotation Yrotation Zrotation
					End Site
					{
						OFFSET 0.000000 4.145050 -1.036259
					}
				}
			}
		}
	}
	JOINT RightUpLeg
	{
		OFFSET 4.313530 0.323005 -1.608940
		CHANNELS 6 Xposition Yposition Zposition Xrotation Yrotation Zrotation
		JOINT RightLeg
		{
			OFFSET 1.163420 0.356368 -22.796801
			CHANNELS 6 Xposition Yposition Zposition Xrotation Yrotation Zrotation
			JOINT RightFoot
			{
				OFFSET 1.121280 -1.777507 -20.668699
				CHANNELS 6 Xposition Yposition Zposition Xrotation Yrotation Zrotation
				JOINT RightToeBase
				{
					OFFSET 0.000000 6.880780 -2.590649
					CHANNELS 6 Xposition Yposition Zposition Xrotation Yrotation Zrotation
					End Site
					{
						OFFSET 0.000000 4.145050 -1.036259
					}
				}
			}
		}
	}
}
MOTION
Frames: 8
Frame Time: 0.041667
-4.640730 -17.460609 50.998596 -1.159173 -0.468428 -163.719443 -0.000001 -0.646014 3.217872 0.000001 -0.069816 -0.002760 -0.000000 0.983769 5.509124 6.092457 -0.116359 -0.005522 0.000000 -0.447617 4.176115 7.526985 -0.116357 -0.016559 -0.000000 -1.485505 4.997557 8.365240 -0.069816 -0.002761 -0.000000 0.757504 7.397966 -8.011002 -0.022997 -0.002997 0.000000 2.474198 3.531734 -28.882681 -5.015641 -2.100045 -0.000001 1.269068 4.240053 -8.678799 -0.507191 -4.823187 -2.124952 4.240065 8.991678 -0.175334 22.908596 -26.962453 -4.607998 -1.628151 -1.269073 343.884561 -68.551658 291.744154 -16.097198 -1.149001 -0.734708 -0.029447 -0.091138 -121.195587 -13.650405 -0.974342 -0.943317 -570.876773 -246.979914 -146.989332 2.124950 4.240066 8.991687 -0.059998 2.845724 28.620957 4.608001 -1.628147 -1.269064 -203.491198 -180.104370 270.191738 16.097198 -1.148996 -0.734713 -129.492832 149.093126 202.994943 13.650401 -0.974342 -0.943319 -16.301918 -39.031738 -24.910207 -4.313531 0.323005 -1.608947 -0.918075 2.242594 1.100848 -1.163419 0.356368 -22.796801 7.113535 8.847540 0.583881 -1.121282 -1.777504 -20.668699 -17.017319 -14.296053 0.095950 -0.000000 6.880781 -2.590653 -28.613003 -0.000019 -0.000013 4.313529 0.323005 -1.608946 -9.678335 -0.359686 -12.892295 1.163419 0.356364 -22.796801 9.066295 -7.788686 -7.931968 1.121279 -1.777505 -20.668692 -12.764630 12.983055 0.020534 0.000001 6.880785 -2.590654 -24.349005 0.000028 -0.000002 
-4.634090 -17.461910 50.993797 -1.235324 -0.509767 -163.742529 0.000001 -0.646012 3.217878 -0.000000 -0.064202 -0.001813 0.000001 0.983771 5.509124 6.078802 -0.107003 -0.003626 0.000000 -0.447615 4.176106 7.513193 -0.107002 -0.010877 0.000000 -1.485500 4.997558 8.355730 -0.064201 -0.001811 0.000001 0.757508 7.397972 -8.014002 -0.021005 -0.003001 -0.000001 2.474196 3.531747 -28.919946 -5.417472 -2.349492 0.000001 1.269066 4.240045 -8.691108 -0.522702 -5.367219 -2.124950 4.240063 8.991677 -0.003162 22.950199 -27.404438 -4.608002 -1.628155 -1.269063 344.540068 -69.046102 292.487114 -16.097204 -1.149000 -0.734708 -0.041135 -0.021858 -121.389605 -13.650398 -0.974348 -0.943321 -570.495375 -246.948850 -147.379117 2.124952 4.240065 8.991688 -0.061334 2.863831 28.640177 4.607998 -1.628154 -1.269079 -203.539227 -180.115954 270.198513 16.097200 -1.149000 -0.734722 -129.617333 149.208460 203.018385 13.650402 -0.974345 -0.943312 -17.286225 -39.117142 -26.255280 -4.313529 0.323005 -1.608938 -1.032942 2.257705 0.937734 -1.163420 0.356368 -22.796801 7.102325 8.796690 0.390747 -1.121280 -1.777506 -20.668695 -16.925928 -14.288031 0.130000 -0.000000 6.880785 -2.590652 -28.613001 -0.000019 -0.000011 4.313530 0.323004 -1.608942 -9.736350 -0.396837 -12.825351 1.163419 0.356367 -22.796803 8.975757 -7.800586 -7.755447 1.121280 -1.777502 -20.668703 -12.657634 12.983057 -0.019478 0.000003 6.880780 -2.590653 -24.443008 0.000027 -0.000001 
-4.627360 -17.462709 50.997295 -1.330058 -0.545013 -163.646442 -0.000000 -0.646012 3.217875 -0.000000 -0.062819 -0.006027 -0.000001 0.983772 5.509126 6.068687 -0.104699 -0.012061 0.000000 -0.447618 4.176111 7.501699 -0.104699 -0.036170 0.000001 -1.485495 4.997568 8.344835 -0.062819 -0.006028 0.000001 0.757504 7.397967 -8.007998 -0.021004 -0.003001 0.000000 2.474187 3.531739 -28.926633 -5.723304 -2.561774 -0.000001 1.269071 4.240056 -8.694826 -0.527263 -5.828253 -2.124949 4.240057 8.991674 0.226514 22.949540 -27.995103 -4.607997 -1.628153 -1.269070 345.277264 -69.529564 293.292967 -16.097202 -1.148995 -0.734703 -0.025747 0.071252 -121.258930 -13.650396 -0.974349 -0.943317 -570.233479 -247.038189 -147.668348 2.124951 4.240059 8.991682 -0.059559 2.853916 28.608859 4.608003 -1.628152 -1.269068 -203.646216 -180.114984 270.193158 16.097198 -1.148998 -0.734704 -129.904065 149.377753 203.121370 13.650404 -0.974338 -0.943319 -18.067654 -39.194177 -27.303702 -4.313530 0.323006 -1.608945 -1.135239 2.258862 0.640501 -1.163420 0.356366 -22.796803 7.064471 8.773522 0.157887 -1.121279 -1.777503 -20.668701 -16.868091 -14.279017 0.153729 0.000001 6.880784 -2.590649 -28.614000 -0.000020 -0.000009 4.313529 0.323007 -1.608942 -9.888279 -0.397647 -12.927354 1.163419 0.356367 -22.796793 8.952442 -7.796394 -7.753148 1.121283 -1.777500 -20.668699 -12.685684 13.281053 -0.049302 0.000003 6.880784 -2.590651 -24.528003 0.000029 -0.000003 
-4.637100 -17.480909 51.005096 -1.411343 -0.535555 -163.696562 -0.000001 -0.646010 3.217884 0.000001 -0.058893 -0.000012 0.000002 0.983775 5.509128 6.062109 -0.098157 -0.000027 -0.000000 -0.447620 4.176119 7.497562 -0.098156 -0.000080 -0.000001 -1.485501 4.997550 8.347763 -0.058894 -0.000016 0.000000 0.757505 7.397973 -8.026991 -0.018996 -0.002999 0.000001 2.474193 3.531743 -29.008011 -5.958120 -2.762936 0.000002 1.269072 4.240069 -8.718785 -0.518901 -6.245258 -2.124950 4.240059 8.991686 0.466329 22.933523 -28.610590 -4.608000 -1.628149 -1.269069 345.712538 -69.647473 294.070325 -16.097202 -1.148996 -0.734699 0.087465 0.177914 -121.274544 -13.650398 -0.974348 -0.943318 -570.066931 -247.130615 -147.858938 2.124951 4.240059 8.991685 -0.061531 2.869736 28.641640 4.608001 -1.628146 -1.269076 -203.727249 -180.123058 270.216572 16.097198 -1.149005 -0.734708 -130.169650 149.582140 203.233372 13.650403 -0.974355 -0.943325 -18.844909 -39.251226 -28.343315 -4.313530 0.323006 -1.608937 -1.247557 2.345832 0.697592 -1.163419 0.356365 -22.796803 7.046441 8.721073 0.260446 -1.121281 -1.777504 -20.668697 -16.885992 -14.294040 0.113492 0.000000 6.880783 -2.590648 -28.615009 -0.000019 -0.000013 4.313529 0.323004 -1.608940 -9.962336 -0.373361 -12.874320 1.163421 0.356367 -22.796799 8.891975 -7.786370 -7.798741 1.121281 -1.777504 -20.668703 -12.715868 13.774053 -0.076168 0.000000 6.880786 -2.590647 -24.603004 0.000028 -0.000003 
-4.647650 -17.495110 51.014095 -1.520896 -0.537222 -163.601964 -0.000000 -0.646013 3.217887 0.000008 -0.062996 0.001008 0.000000 0.983772 5.509129 6.056722 -0.104458 0.002651 0.000001 -0.447617 4.176108 7.492218 -0.104460 0.007956 -0.000001 -1.485507 4.997559 8.344285 -0.062675 0.001326 0.000001 0.757499 7.397974 -8.029002 -0.021004 -0.003000 0.000001 2.474181 3.531738 -29.056506 -6.418375 -2.980703 0.000001 1.269065 4.240063 -8.735881 -0.558121 -6.731318 -2.124950 4.240057 8.991683 0.513512 22.920926 -28.730914 -4.608001 -1.628156 -1.269064 345.793353 -69.694301 294.195317 -16.097208 -1.149012 -0.734712 0.157863 0.280818 -121.068846 -13.650399 -0.974348 -0.943324 -569.683239 -247.168591 -148.264924 2.124951 4.240057 8.991683 -0.062710 2.845687 28.675736 4.608002 -1.628146 -1.269058 -203.658250 -180.086981 270.324134 16.097193 -1.148998 -0.734710 -130.315064 149.868748 203.089637 13.650398 -0.974352 -0.943306 -19.546909 -39.168918 -29.341260 -4.313530 0.323003 -1.608932 -1.329818 2.349806 0.751636 -1.163419 0.356368 -22.796799 7.010364 8.741566 0.326882 -1.121282 -1.777506 -20.668701 -16.906426 -14.317059 0.067070 0.000000 6.880785 -2.590651 -28.615008 -0.000022 -0.000009 4.313528 0.323004 -1.608932 -10.124131 -0.331352 -12.939257 1.163420 0.356366 -22.796801 8.880414 -7.759231 -7.888785 1.121282 -1.777504 -20.668699 -12.791067 14.292049 -0.096996 0.000002 6.880784 -2.590647 -24.670992 0.000029 -0.000002 
-4.641030 -17.488209 51.023895 -1.600692 -0.510328 -163.590735 -0.000000 -0.646011 3.217884 0.000014 -0.058994 0.007002 0.000001 0.983769 5.509137 6.052751 -0.097674 0.013824 -0.000001 -0.447617 4.176104 7.487557 -0.097675 0.041475 0.000001 -1.485494 4.997550 8.339589 -0.058605 0.006913 -0.000000 0.757501 7.397966 -8.026001 -0.018996 -0.003000 -0.000000 2.474185 3.531739 -29.114723 -7.145767 -3.226088 -0.000000 1.269070 4.240060 -8.759287 -0.649677 -7.305478 -2.124950 4.240057 8.991682 0.513168 22.913490 -28.731416 -4.607999 -1.628145 -1.269073 345.989352 -69.701671 294.374241 -16.097198 -1.149003 -0.734705 0.219586 0.370365 -120.904990 -13.650395 -0.974345 -0.943320 -569.124474 -247.171760 -148.846938 2.124951 4.240055 8.991671 -0.066153 2.914438 28.713695 4.607996 -1.628150 -1.269079 -203.814416 -180.158383 270.295201 16.097197 -1.149003 -0.734711 -130.557126 150.260774 203.139935 13.650402 -0.974346 -0.943318 -20.272973 -39.232487 -30.285848 -4.313530 0.323007 -1.608936 -1.353634 2.373712 0.908780 -1.163419 0.356367 -22.796804 6.964897 8.719820 0.528974 -1.121281 -1.777502 -20.668699 -16.955458 -14.340073 0.010289 -0.000001 6.880784 -2.590648 -28.616000 -0.000022 -0.000011 4.313529 0.323006 -1.608936 -10.173551 -0.296391 -12.838222 1.163420 0.356366 -22.796806 8.854905 -7.739026 -7.865251 1.121281 -1.777502 -20.668701 -12.861551 14.289041 -0.103179 -0.000002 6.880783 -2.590648 -24.731012 0.000028 -0.000002 
-4.655270 -17.518810 51.029900 -1.667437 -0.442133 -163.549891 -0.000000 -0.646009 3.217882 0.000013 -0.053994 0.007004 -0.000000 0.983775 5.509128 6.048569 -0.090758 0.013867 0.000001 -0.447619 4.176109 7.483068 -0.090758 0.041599 0.000001 -1.485498 4.997560 8.335874 -0.054454 0.006933 0.000000 0.757503 7.397965 -8.024996 -0.017999 -0.003001 0.000001 2.474197 3.531747 -29.173049 -7.596919 -3.505813 0.000000 1.269070 4.240075 -8.778771 -0.667580 -7.911538 -2.124951 4.240059 8.991675 0.518343 22.926735 -28.743362 -4.607998 -1.628153 -1.269068 346.325643 -69.772172 294.728373 -16.097200 -1.149004 -0.734707 0.269270 0.438519 -120.916205 -13.650401 -0.974351 -0.943313 -568.707013 -247.312325 -149.307758 2.124951 4.240057 8.991675 -0.067843 2.938074 28.736091 4.608000 -1.628150 -1.269080 -203.884548 -180.204692 270.298097 16.097193 -1.149002 -0.734710 -130.794885 150.539172 203.164701 13.650397 -0.974350 -0.943319 -20.890337 -39.280807 -31.083194 -4.313530 0.323007 -1.608942 -1.380469 2.501648 0.972933 -1.163420 0.356367 -22.796803 6.888488 8.675315 0.637533 -1.121281 -1.777505 -20.668701 -16.923141 -14.342069 -0.024795 -0.000001 6.880783 -2.590648 -28.616001 -0.000021 -0.000012 4.313530 0.323006 -1.608943 -10.210104 -0.216487 -12.779128 1.163418 0.356365 -22.796799 8.808526 -7.675588 -7.946438 1.121279 -1.777503 -20.668703 -12.870884 14.288052 -0.081511 -0.000001 6.880785 -2.590654 -24.785010 0.000027 -0.000002 
-4.677960 -17.527710 51.035599 -1.736860 -0.414084 -163.440252 -0.000000 -0.646014 3.217880 0.000015 -0.063994 0.006004 0.000001 0.983771 5.509128 6.043500 -0.106400 0.012393 0.000001 -0.447617 4.176115 7.478530 -0.106400 0.037171 -0.000000 -1.485496 4.997547 8.334093 -0.063840 0.006198 0.000001 0.757504 7.397962 -8.031001 -0.021004 -0.002999 0.000001 2.474193 3.531744 -29.228364 -7.541856 -3.882636 -0.000000 1.269067 4.240054 -8.786567 -0.536833 -8.639380 -2.124949 4.240061 8.991678 0.550960 22.899061 -28.827971 -4.608003 -1.628148 -1.269065 346.750809 -69.587798 295.273449 -16.097197 -1.148998 -0.734696 0.285360 0.573084 -120.961216 -13.650407 -0.974355 -0.943304 -568.378399 -247.565534 -149.696163 2.124952 4.240057 8.991673 -0.066805 2.927799 28.720375 4.607999 -1.628151 -1.269077 -203.954653 -180.233693 270.305829 16.097200 -1.148996 -0.734706 -131.003875 150.759268 203.181708 13.650405 -0.974349 -0.943327 -21.521226 -39.269070 -31.923092 -4.313530 0.323004 -1.608940 -1.410726 2.574604 1.018022 -1.163422 0.356367 -22.796799 6.852932 8.658983 0.568434 -1.121279 -1.777501 -20.668703 -16.935664 -14.347065 -0.026866 0.000001 6.880781 -2.590649 -28.617004 -0.000021 -0.000013 4.313529 0.323003 -1.608942 -10.336988 -0.156905 -12.915087 1.163419 0.356366 -22.796806 8.890084 -7.587281 -8.049975 1.121282 -1.777503 -20.668697 -12.944254 14.292062 -0.055702 0.000000 6.880782 -2.590650 -24.833011 0.000027 -0.000003 
